ffmpeg started on 2025-06-19 at 09:47:17
Report written to "D:\Convert\FFMetrics\reports\ssim_report-6.txt"
Log level: 32
Command line:
ffmpeg -hide_banner -nostdin -i "G:\\\xc0\xed\xe8\xec\xe5\\[\xd2\xee\xef-4]\\Fate\\\xc4\xee\xef\xee\xeb\xed\xe5\xed\xe8\xe5 - \xcf\xee\xf1\xeb\xe5\xe4\xed\xe8\xe9 \xe2\xfb\xe7\xee\xe2 \xed\xe0 \xe1\xe8\xf1\\Fate_Extra_Last_Encore_[08]_[AniLibria_TV]_[HDTV-Rip_720p]_HEVC.mkv" -i "G:\\\xc0\xed\xe8\xec\xe5\\[\xd2\xee\xef-4]\\Fate\\\xc4\xee\xef\xee\xeb\xed\xe5\xed\xe8\xe5 - \xcf\xee\xf1\xeb\xe5\xe4\xed\xe8\xe9 \xe2\xfb\xe7\xee\xe2 \xed\xe0 \xe1\xe8\xf1\\Fate_Extra_Last_Encore_[08]_[AniLibria_TV]_[HDTV-Rip_720p].mkv" -lavfi "[0:v]settb=AVTB,setpts=PTS-STARTPTS,format=pix_fmts=yuv420p10,fps=24000/1001,scale=1280:720:flags=bicubic[main];[1:v]settb=AVTB,setpts=PTS-STARTPTS,format=pix_fmts=yuv420p,fps=24000/1001,scale=1280:720:flags=bicubic[ref];[main][ref]ssim=eof_action=endall:stats_file='D\\:/Convert/FFMetrics/logs/ssim_logfile-6.txt'" -f null -
Input #0, matroska,webm, from 'G:\Аниме\[Топ-4]\Fate\Дополнение - Последний вызов на бис\Fate_Extra_Last_Encore_[08]_[AniLibria_TV]_[HDTV-Rip_720p]_HEVC.mkv':
  Metadata:
    ENCODER         : Lavf61.7.100
  Duration: 00:24:00.13, start: -0.021000, bitrate: 1269 kb/s
  Stream #0:0(jpn): Video: hevc (Main 10), yuv420p10le(tv, bt709, progressive), 1280x720 [SAR 1:1 DAR 16:9], 23.81 fps, 23.81 tbr, 1k tbn (default)
      Metadata:
        ENCODER         : Lavc61.19.100 libx265
        BPS             : 1070843
        DURATION        : 00:24:00.012000000
        NUMBER_OF_FRAMES: 34525
        NUMBER_OF_BYTES : 192753511
        _STATISTICS_WRITING_APP: mkvpropedit v66.0.0 ('Josie') 64-bit
        _STATISTICS_WRITING_DATE_UTC: 2025-06-17 12:58:46
        _STATISTICS_TAGS: BPS DURATION NUMBER_OF_FRAMES NUMBER_OF_BYTES
  Stream #0:1(rus): Audio: aac (LC), 48000 Hz, stereo, fltp (default)
      Metadata:
        title           : Ados Amikiri Anzen Hekomi Silv
        ENCODER         : Lavc61.19.100 aac
        BPS             : 194179
        DURATION        : 00:24:00.107000000
        NUMBER_OF_FRAMES: 67506
        NUMBER_OF_BYTES : 34954965
        _STATISTICS_WRITING_APP: mkvpropedit v66.0.0 ('Josie') 64-bit
        _STATISTICS_WRITING_DATE_UTC: 2025-06-17 12:58:46
        _STATISTICS_TAGS: BPS DURATION NUMBER_OF_FRAMES NUMBER_OF_BYTES
  Stream #0:2(rus): Subtitle: ass (ssa) (default) (forced)
      Metadata:
        title           : Надписи
        BPS             : 20
        DURATION        : 00:18:26.200000000
        NUMBER_OF_FRAMES: 13
        NUMBER_OF_BYTES : 2777
        _STATISTICS_WRITING_APP: mkvpropedit v66.0.0 ('Josie') 64-bit
        _STATISTICS_WRITING_DATE_UTC: 2025-06-17 12:58:46
        _STATISTICS_TAGS: BPS DURATION NUMBER_OF_FRAMES NUMBER_OF_BYTES
  Stream #0:3(rus): Subtitle: ass (ssa)
      Metadata:
        title           : Полные
        BPS             : 134
        DURATION        : 00:23:15.110000000
        NUMBER_OF_FRAMES: 238
        NUMBER_OF_BYTES : 23516
        _STATISTICS_WRITING_APP: mkvpropedit v66.0.0 ('Josie') 64-bit
        _STATISTICS_WRITING_DATE_UTC: 2025-06-17 12:58:46
        _STATISTICS_TAGS: BPS DURATION NUMBER_OF_FRAMES NUMBER_OF_BYTES
Input #1, matroska,webm, from 'G:\Аниме\[Топ-4]\Fate\Дополнение - Последний вызов на бис\Fate_Extra_Last_Encore_[08]_[AniLibria_TV]_[HDTV-Rip_720p].mkv':
  Metadata:
    encoder         : libebml v1.4.2 + libmatroska v1.6.4
    creation_time   : 2024-12-27T09:58:45.000000Z
  Duration: 00:24:00.11, start: 0.000000, bitrate: 3060 kb/s
  Stream #1:0(jpn): Video: h264 (Main), yuv420p(tv, bt709, progressive), 1280x720, SAR 1:1 DAR 16:9, 23.81 fps, 23.81 tbr, 1k tbn (default)
      Metadata:
        BPS             : 2854873
        DURATION        : 00:24:00.027000000
        NUMBER_OF_FRAMES: 34525
        NUMBER_OF_BYTES : 513886897
        _STATISTICS_WRITING_APP: mkvmerge v66.0.0 ('Josie') 64-bit
        _STATISTICS_WRITING_DATE_UTC: 2024-12-27 09:58:45
        _STATISTICS_TAGS: BPS DURATION NUMBER_OF_FRAMES NUMBER_OF_BYTES
  Stream #1:1(rus): Audio: aac (LC), 48000 Hz, stereo, fltp (default)
      Metadata:
        title           : Ados Amikiri Anzen Hekomi Silv
        BPS             : 192092
        DURATION        : 00:24:00.107000000
        NUMBER_OF_FRAMES: 67505
        NUMBER_OF_BYTES : 34579145
        _STATISTICS_WRITING_APP: mkvmerge v66.0.0 ('Josie') 64-bit
        _STATISTICS_WRITING_DATE_UTC: 2024-12-27 09:58:45
        _STATISTICS_TAGS: BPS DURATION NUMBER_OF_FRAMES NUMBER_OF_BYTES
  Stream #1:2(rus): Subtitle: ass (ssa) (default) (forced)
      Metadata:
        title           : Надписи
        BPS             : 20
        DURATION        : 00:18:26.200000000
        NUMBER_OF_FRAMES: 13
        NUMBER_OF_BYTES : 2777
        _STATISTICS_WRITING_APP: mkvmerge v66.0.0 ('Josie') 64-bit
        _STATISTICS_WRITING_DATE_UTC: 2024-12-27 09:58:45
        _STATISTICS_TAGS: BPS DURATION NUMBER_OF_FRAMES NUMBER_OF_BYTES
  Stream #1:3(rus): Subtitle: ass (ssa)
      Metadata:
        title           : Полные
        BPS             : 134
        DURATION        : 00:23:15.110000000
        NUMBER_OF_FRAMES: 238
        NUMBER_OF_BYTES : 23516
        _STATISTICS_WRITING_APP: mkvmerge v66.0.0 ('Josie') 64-bit
        _STATISTICS_WRITING_DATE_UTC: 2024-12-27 09:58:45
        _STATISTICS_TAGS: BPS DURATION NUMBER_OF_FRAMES NUMBER_OF_BYTES
  Stream #1:4: Attachment: ttf
      Metadata:
        filename        : KozGoPr6N-Medium_0.otf
        mimetype        : application/x-truetype-font
  Stream #1:5: Attachment: ttf
      Metadata:
        filename        : 9511(1).ttf
        mimetype        : application/x-truetype-font
  Stream #1:6: Attachment: ttf
      Metadata:
        filename        : arx.ttf
        mimetype        : application/x-truetype-font
  Stream #1:7: Attachment: ttf
      Metadata:
        filename        : BwSurcoDEMO-Black.otf
        mimetype        : application/x-truetype-font
  Stream #1:8: Attachment: ttf
      Metadata:
        filename        : BwSurcoDEMO-BlackItalic.otf
        mimetype        : application/x-truetype-font
  Stream #1:9: Attachment: ttf
      Metadata:
        filename        : BwSurcoDEMO-Bold.otf
        mimetype        : application/x-truetype-font
  Stream #1:10: Attachment: ttf
      Metadata:
        filename        : BwSurcoDEMO-BoldItalic.otf
        mimetype        : application/x-truetype-font
  Stream #1:11: Attachment: ttf
      Metadata:
        filename        : BwSurcoDEMO-Book.otf
        mimetype        : application/x-truetype-font
  Stream #1:12: Attachment: ttf
      Metadata:
        filename        : BwSurcoDEMO-BookItalic.otf
        mimetype        : application/x-truetype-font
  Stream #1:13: Attachment: ttf
      Metadata:
        filename        : BwSurcoDEMO-Light.otf
        mimetype        : application/x-truetype-font
  Stream #1:14: Attachment: ttf
      Metadata:
        filename        : BwSurcoDEMO-LightItalic.otf
        mimetype        : application/x-truetype-font
  Stream #1:15: Attachment: ttf
      Metadata:
        filename        : BwSurcoDEMO-Medium.otf
        mimetype        : application/x-truetype-font
  Stream #1:16: Attachment: ttf
      Metadata:
        filename        : BwSurcoDEMO-MediumItalic.otf
        mimetype        : application/x-truetype-font
  Stream #1:17: Attachment: ttf
      Metadata:
        filename        : BwSurcoDEMO-Regular.otf
        mimetype        : application/x-truetype-font
  Stream #1:18: Attachment: ttf
      Metadata:
        filename        : BwSurcoDEMO-RegularItalic.otf
        mimetype        : application/x-truetype-font
Stream mapping:
  Stream #0:0 (hevc) -> settb:default
  Stream #1:0 (h264) -> settb:default
  ssim:default -> Stream #0:0 (wrapped_avframe)
  Stream #0:1 -> #0:1 (aac (native) -> pcm_s16le (native))
Output #0, null, to 'pipe:':
  Metadata:
    encoder         : Lavf61.7.100
  Stream #0:0: Video: wrapped_avframe, yuv420p10le(tv, bt709, progressive), 1280x720 [SAR 1:1 DAR 16:9], q=2-31, 200 kb/s, 23.98 fps, 23.98 tbn
      Metadata:
        encoder         : Lavc61.19.100 wrapped_avframe
  Stream #0:1(rus): Audio: pcm_s16le, 48000 Hz, stereo, s16, 1536 kb/s (default)
      Metadata:
        title           : Ados Amikiri Anzen Hekomi Silv
        _STATISTICS_TAGS: BPS DURATION NUMBER_OF_FRAMES NUMBER_OF_BYTES
        BPS             : 194179
        DURATION        : 00:24:00.107000000
        NUMBER_OF_FRAMES: 67506
        NUMBER_OF_BYTES : 34954965
        _STATISTICS_WRITING_APP: mkvpropedit v66.0.0 ('Josie') 64-bit
        _STATISTICS_WRITING_DATE_UTC: 2025-06-17 12:58:46
        encoder         : Lavc61.19.100 pcm_s16le
frame=  437 fps=0.0 q=-0.0 size=N/A time=00:00:18.22 bitrate=N/A speed=35.2x    frame=  863 fps=828 q=-0.0 size=N/A time=00:00:35.99 bitrate=N/A speed=34.5x    frame= 1339 fps=867 q=-0.0 size=N/A time=00:00:55.84 bitrate=N/A speed=36.1x    frame= 1780 fps=859 q=-0.0 size=N/A time=00:01:14.24 bitrate=N/A speed=35.8x    frame= 1970 fps=763 q=-0.0 size=N/A time=00:01:22.16 bitrate=N/A speed=31.8x    frame= 2208 fps=711 q=-0.0 size=N/A time=00:01:32.09 bitrate=N/A speed=29.7x    frame= 2469 fps=684 q=-0.0 size=N/A time=00:01:42.97 bitrate=N/A speed=28.5x    frame= 2686 fps=650 q=-0.0 size=N/A time=00:01:52.02 bitrate=N/A speed=27.1x    frame= 2897 fps=624 q=-0.0 size=N/A time=00:02:00.82 bitrate=N/A speed=  26x    frame= 3051 fps=590 q=-0.0 size=N/A time=00:02:07.25 bitrate=N/A speed=24.6x    frame= 3204 fps=563 q=-0.0 size=N/A time=00:02:13.63 bitrate=N/A speed=23.5x    frame= 3419 fps=550 q=-0.0 size=N/A time=00:02:22.60 bitrate=N/A speed=22.9x    frame= 3659 fps=545 q=-0.0 size=N/A time=00:02:32.61 bitrate=N/A speed=22.7x    frame= 4170 fps=576 q=-0.0 size=N/A time=00:02:53.92 bitrate=N/A speed=  24x    frame= 4493 fps=579 q=-0.0 size=N/A time=00:03:07.39 bitrate=N/A speed=24.1x    frame= 4858 fps=587 q=-0.0 size=N/A time=00:03:22.61 bitrate=N/A speed=24.5x    frame= 5339 fps=607 q=-0.0 size=N/A time=00:03:42.68 bitrate=N/A speed=25.3x    frame= 5735 fps=617 q=-0.0 size=N/A time=00:03:59.19 bitrate=N/A speed=25.7x    frame= 6170 fps=629 q=-0.0 size=N/A time=00:04:17.34 bitrate=N/A speed=26.2x    frame= 6542 fps=633 q=-0.0 size=N/A time=00:04:32.85 bitrate=N/A speed=26.4x    frame= 6972 fps=643 q=-0.0 size=N/A time=00:04:50.79 bitrate=N/A speed=26.8x    frame= 7442 fps=655 q=-0.0 size=N/A time=00:05:10.39 bitrate=N/A speed=27.3x    frame= 7875 fps=662 q=-0.0 size=N/A time=00:05:28.45 bitrate=N/A speed=27.6x    frame= 8314 fps=671 q=-0.0 size=N/A time=00:05:46.76 bitrate=N/A speed=  28x    frame= 8836 fps=685 q=-0.0 size=N/A time=00:06:08.53 bitrate=N/A speed=28.6x    frame= 9419 fps=701 q=-0.0 size=N/A time=00:06:32.85 bitrate=N/A speed=29.3x    frame= 9992 fps=716 q=-0.0 size=N/A time=00:06:56.74 bitrate=N/A speed=29.9x    frame=10524 fps=728 q=-0.0 size=N/A time=00:07:18.93 bitrate=N/A speed=30.4x    frame=11052 fps=738 q=-0.0 size=N/A time=00:07:40.96 bitrate=N/A speed=30.8x    frame=11597 fps=749 q=-0.0 size=N/A time=00:08:03.69 bitrate=N/A speed=31.2x    frame=12083 fps=755 q=-0.0 size=N/A time=00:08:23.96 bitrate=N/A speed=31.5x    frame=12636 fps=765 q=-0.0 size=N/A time=00:08:47.02 bitrate=N/A speed=31.9x    frame=13234 fps=777 q=-0.0 size=N/A time=00:09:11.96 bitrate=N/A speed=32.4x    frame=13736 fps=783 q=-0.0 size=N/A time=00:09:32.90 bitrate=N/A speed=32.6x    frame=14153 fps=784 q=-0.0 size=N/A time=00:09:50.29 bitrate=N/A speed=32.7x    frame=14611 fps=786 q=-0.0 size=N/A time=00:10:09.40 bitrate=N/A speed=32.8x    frame=14966 fps=783 q=-0.0 size=N/A time=00:10:24.20 bitrate=N/A speed=32.7x    frame=15319 fps=781 q=-0.0 size=N/A time=00:10:38.92 bitrate=N/A speed=32.6x    frame=15734 fps=782 q=-0.0 size=N/A time=00:10:56.23 bitrate=N/A speed=32.6x    frame=16243 fps=787 q=-0.0 size=N/A time=00:11:17.46 bitrate=N/A speed=32.8x    frame=16721 fps=790 q=-0.0 size=N/A time=00:11:37.40 bitrate=N/A speed=  33x    frame=17238 fps=795 q=-0.0 size=N/A time=00:11:58.96 bitrate=N/A speed=33.2x    frame=17596 fps=793 q=-0.0 size=N/A time=00:12:13.89 bitrate=N/A speed=33.1x    frame=18174 fps=800 q=-0.0 size=N/A time=00:12:38.00 bitrate=N/A speed=33.4x    frame=18764 fps=808 q=-0.0 size=N/A time=00:13:02.61 bitrate=N/A speed=33.7x    frame=19399 fps=817 q=-0.0 size=N/A time=00:13:29.09 bitrate=N/A speed=34.1x    frame=20058 fps=827 q=-0.0 size=N/A time=00:13:56.58 bitrate=N/A speed=34.5x    frame=20720 fps=836 q=-0.0 size=N/A time=00:14:24.19 bitrate=N/A speed=34.9x    frame=21359 fps=845 q=-0.0 size=N/A time=00:14:50.84 bitrate=N/A speed=35.2x    frame=21896 fps=849 q=-0.0 size=N/A time=00:15:13.24 bitrate=N/A speed=35.4x    frame=22476 fps=854 q=-0.0 size=N/A time=00:15:37.43 bitrate=N/A speed=35.6x    frame=22912 fps=854 q=-0.0 size=N/A time=00:15:55.62 bitrate=N/A speed=35.6x    frame=23526 fps=860 q=-0.0 size=N/A time=00:16:21.23 bitrate=N/A speed=35.9x    frame=24161 fps=867 q=-0.0 size=N/A time=00:16:47.71 bitrate=N/A speed=36.2x    frame=24717 fps=870 q=-0.0 size=N/A time=00:17:10.90 bitrate=N/A speed=36.3x    frame=25130 fps=869 q=-0.0 size=N/A time=00:17:28.13 bitrate=N/A speed=36.2x    frame=25549 fps=868 q=-0.0 size=N/A time=00:17:45.60 bitrate=N/A speed=36.2x    frame=26068 fps=871 q=-0.0 size=N/A time=00:18:07.25 bitrate=N/A speed=36.3x    frame=26692 fps=876 q=-0.0 size=N/A time=00:18:33.27 bitrate=N/A speed=36.5x    frame=27244 fps=880 q=-0.0 size=N/A time=00:18:56.30 bitrate=N/A speed=36.7x    frame=27712 fps=880 q=-0.0 size=N/A time=00:19:15.82 bitrate=N/A speed=36.7x    frame=28213 fps=881 q=-0.0 size=N/A time=00:19:36.71 bitrate=N/A speed=36.8x    frame=28547 fps=878 q=-0.0 size=N/A time=00:19:50.64 bitrate=N/A speed=36.6x    frame=28790 fps=872 q=-0.0 size=N/A time=00:20:00.78 bitrate=N/A speed=36.3x    frame=29075 fps=867 q=-0.0 size=N/A time=00:20:12.66 bitrate=N/A speed=36.2x    frame=29406 fps=863 q=-0.0 size=N/A time=00:20:26.47 bitrate=N/A speed=  36x    frame=29645 fps=857 q=-0.0 size=N/A time=00:20:36.44 bitrate=N/A speed=35.8x    frame=29858 fps=851 q=-0.0 size=N/A time=00:20:45.32 bitrate=N/A speed=35.5x    frame=30210 fps=848 q=-0.0 size=N/A time=00:21:00.00 bitrate=N/A speed=35.4x    frame=30651 fps=848 q=-0.0 size=N/A time=00:21:18.40 bitrate=N/A speed=35.4x    frame=31195 fps=851 q=-0.0 size=N/A time=00:21:41.09 bitrate=N/A speed=35.5x    frame=31808 fps=856 q=-0.0 size=N/A time=00:22:06.65 bitrate=N/A speed=35.7x    frame=32427 fps=860 q=-0.0 size=N/A time=00:22:32.47 bitrate=N/A speed=35.9x    frame=32969 fps=863 q=-0.0 size=N/A time=00:22:55.08 bitrate=N/A speed=  36x    frame=33603 fps=868 q=-0.0 size=N/A time=00:23:21.52 bitrate=N/A speed=36.2x    frame=34239 fps=873 q=-0.0 size=N/A time=00:23:48.05 bitrate=N/A speed=36.4x    [Parsed_ssim_10 @ 00000240dc23b540] SSIM Y:0.985061 (18.256659) U:0.990824 (20.373530) V:0.990266 (20.117074) All:0.986889 (18.823552)
[out#0/null @ 00000240db3ddc00] video:14835KiB audio:270024KiB subtitle:0KiB other streams:0KiB global headers:0KiB muxing overhead: unknown
frame=34526 fps=875 q=-0.0 Lsize=N/A time=00:24:00.02 bitrate=N/A speed=36.5x    
